<?xml version="1.0" standalone="no"?>
<!DOCTYPE svg PUBLIC "-//W3C//DTD SVG 20010904//EN"
 "http://www.w3.org/TR/2001/REC-SVG-20010904/DTD/svg10.dtd">
<svg version="1.0" xmlns="http://www.w3.org/2000/svg"
 width="441.000000pt" height="453.000000pt" viewBox="0 0 441.000000 453.000000"
 preserveAspectRatio="xMidYMid meet">

<g transform="translate(0.000000,453.000000) scale(0.100000,-0.100000)"
fill="#000000" stroke="none">
<path d="M1870 3915 c-388 -29 -713 -56 -723 -60 -13 -5 -17 -16 -15 -39 2
-25 11 -35 51 -56 61 -32 92 -62 120 -114 34 -65 32 -211 -12 -1006 -101
-1793 -113 -2031 -98 -2052 7 -10 113 -84 237 -164 l225 -146 290 20 c263 19
291 23 306 41 12 15 18 55 24 168 17 344 63 1124 66 1128 2 2 168 15 369 30
201 14 391 33 424 41 89 22 169 69 243 145 110 113 184 253 233 439 50 194 62
282 67 500 5 229 -7 349 -53 500 -53 173 -119 265 -254 354 -358 237 -448 293
-499 311 -68 24 -227 17 -1001 -40z m1020 -85 c53 -27 123 -112 164 -201 85
-182 107 -499 57 -840 -28 -191 -80 -335 -185 -518 -22 -38 -145 -135 -200
-158 -67 -28 -91 -31 -565 -64 -269 -19 -327 -26 -345 -40 -21 -17 -23 -30
-35 -241 -35 -640 -60 -1060 -63 -1062 -1 -2 -99 -9 -216 -17 l-214 -14 6 60
c3 33 13 202 21 375 19 394 36 703 81 1530 20 360 37 723 38 805 1 144 0 153
-28 220 -16 39 -35 77 -43 86 -17 21 -39 18 607 64 822 57 837 57 920 15z
m355 -230 c13 0 101 -64 144 -104 23 -23 53 -57 66 -77 65 -101 125 -368 125
-558 0 -185 -38 -446 -90 -616 -35 -112 -129 -273 -152 -259 -6 4 -5 10 3 15
8 5 -53 8 -146 8 -88 0 -154 -3 -146 -6 11 -4 11 -7 0 -13 -14 -9 -57 11 -126
57 l-42 29 34 27 c55 44 133 154 185 262 75 154 96 240 141 567 23 168 -4 518
-51 652 -11 33 -20 61 -20 64 0 2 15 -7 34 -22 19 -14 38 -26 41 -26z m-1166
-1844 l153 -100 -6 -40 c-3 -23 -10 -169 -16 -326 -11 -299 -38 -741 -46 -749
-2 -2 -4 2 -4 10 -1 32 -37 59 -78 59 -52 0 -72 -8 -65 -26 8 -20 -3 -17 -50
14 -23 16 -62 40 -87 54 l-45 26 7 153 c4 85 11 228 17 319 5 91 15 253 20
360 17 316 21 361 35 352 7 -4 81 -52 165 -106z"/>
<path d="M2738 3833 c7 -3 16 -2 19 1 4 3 -2 6 -13 5 -11 0 -14 -3 -6 -6z"/>
<path d="M2598 3823 c7 -3 16 -2 19 1 4 3 -2 6 -13 5 -11 0 -14 -3 -6 -6z"/>
<path d="M2458 3813 c7 -3 16 -2 19 1 4 3 -2 6 -13 5 -11 0 -14 -3 -6 -6z"/>
<path d="M2318 3803 c6 -2 18 -2 25 0 6 3 1 5 -13 5 -14 0 -19 -2 -12 -5z"/>
<path d="M2178 3793 c6 -2 18 -2 25 0 6 3 1 5 -13 5 -14 0 -19 -2 -12 -5z"/>
<path d="M2048 3783 c7 -3 16 -2 19 1 4 3 -2 6 -13 5 -11 0 -14 -3 -6 -6z"/>
<path d="M1898 3773 c6 -2 18 -2 25 0 6 3 1 5 -13 5 -14 0 -19 -2 -12 -5z"/>
<path d="M1758 3763 c6 -2 18 -2 25 0 6 3 1 5 -13 5 -14 0 -19 -2 -12 -5z"/>
<path d="M1628 3753 c7 -3 16 -2 19 1 4 3 -2 6 -13 5 -11 0 -14 -3 -6 -6z"/>
<path d="M1488 3743 c7 -3 16 -2 19 1 4 3 -2 6 -13 5 -11 0 -14 -3 -6 -6z"/>
<path d="M2425 3379 c-49 -4 -186 -13 -303 -20 -175 -10 -218 -16 -235 -30
-20 -16 -23 -32 -33 -220 -7 -112 -16 -293 -20 -401 l-7 -197 25 -11 c18 -9
108 -5 375 14 192 14 357 28 366 31 30 12 74 146 96 292 15 98 13 343 -3 425
-7 37 -11 69 -9 71 2 2 -8 16 -21 30 -28 30 -51 32 -231 16z m-266 -309 l144
-94 -7 -133 c-3 -73 -9 -139 -12 -148 -5 -13 -33 -15 -172 -15 l-165 0 7 208
c4 114 9 229 13 255 5 46 6 47 27 34 11 -8 86 -56 165 -107z m427 -167 c-11
-112 -45 -242 -66 -253 -10 -6 -44 -10 -75 -10 l-56 0 6 63 c2 34 7 106 11
159 l6 97 46 4 c26 2 67 4 91 5 l44 2 -7 -67z"/>
<path d="M2761 3154 c0 -11 3 -14 6 -6 3 7 2 16 -1 19 -3 4 -6 -2 -5 -13z"/>
<path d="M2598 2503 c7 -3 16 -2 19 1 4 3 -2 6 -13 5 -11 0 -14 -3 -6 -6z"/>
<path d="M2413 2493 c9 -2 25 -2 35 0 9 3 1 5 -18 5 -19 0 -27 -2 -17 -5z"/>
<path d="M2248 2483 c6 -2 18 -2 25 0 6 3 1 5 -13 5 -14 0 -19 -2 -12 -5z"/>
<path d="M2108 2473 c6 -2 18 -2 25 0 6 3 1 5 -13 5 -14 0 -19 -2 -12 -5z"/>
<path d="M1963 2463 c9 -2 25 -2 35 0 9 3 1 5 -18 5 -19 0 -27 -2 -17 -5z"/>
</g>
</svg>
